<?xml version="1.0" encoding="UTF-8" standalone="no"?>
<!-- Created with Inkscape (http://www.inkscape.org/) -->

<svg
   xmlns:dc="http://purl.org/dc/elements/1.1/"
   xmlns:cc="http://creativecommons.org/ns#"
   xmlns:rdf="http://www.w3.org/1999/02/22-rdf-syntax-ns#"
   xmlns:svg="http://www.w3.org/2000/svg"
   xmlns="http://www.w3.org/2000/svg"
   xmlns:sodipodi="http://sodipodi.sourceforge.net/DTD/sodipodi-0.dtd"
   xmlns:inkscape="http://www.inkscape.org/namespaces/inkscape"
   width="464.71964"
   height="370.05844"
   id="svg2"
   version="1.1"
   inkscape:version="0.48.5 r10040"
   sodipodi:docname="splash.svg">
  <defs
     id="defs4" />
  <sodipodi:namedview
     id="base"
     pagecolor="#ffffff"
     bordercolor="#666666"
     borderopacity="1.0"
     inkscape:pageopacity="0.0"
     inkscape:pageshadow="2"
     inkscape:zoom="0.52011018"
     inkscape:cx="187.82102"
     inkscape:cy="356.502"
     inkscape:document-units="px"
     inkscape:current-layer="layer1"
     showgrid="false"
     inkscape:window-width="1366"
     inkscape:window-height="705"
     inkscape:window-x="-8"
     inkscape:window-y="-8"
     inkscape:window-maximized="1"
     fit-margin-right="10"
     fit-margin-top="0"
     fit-margin-left="10"
     fit-margin-bottom="30" />
  <metadata
     id="metadata7">
    <rdf:RDF>
      <cc:Work
         rdf:about="">
        <dc:format>image/svg+xml</dc:format>
        <dc:type
           rdf:resource="http://purl.org/dc/dcmitype/StillImage" />
        <dc:title></dc:title>
      </cc:Work>
    </rdf:RDF>
  </metadata>
  <g
     inkscape:label="Layer 1"
     inkscape:groupmode="layer"
     id="layer1"
     transform="translate(-36.59375,-46.65625)">
    <rect
       style="fill:#784421;fill-opacity:1;stroke:#502d16;stroke-width:2;stroke-linecap:round;stroke-linejoin:round;stroke-miterlimit:4;stroke-opacity:1;stroke-dasharray:none"
       id="rect2985"
       width="335.80457"
       height="205.28943"
       x="47.583645"
       y="47.667545"
       rx="5"
       ry="5" />
    <rect
       style="fill:#5d6c53;fill-opacity:1;stroke:#502d16;stroke-width:2;stroke-linecap:round;stroke-linejoin:round;stroke-miterlimit:4;stroke-opacity:1;stroke-dasharray:none"
       id="rect2985-1"
       width="309.28583"
       height="161.5939"
       x="61.458168"
       y="57.072987"
       rx="5"
       ry="5" />
    <text
       xml:space="preserve"
       style="font-size:36px;font-style:normal;font-variant:normal;font-weight:normal;font-stretch:normal;text-align:center;line-height:125%;letter-spacing:0px;word-spacing:0px;text-anchor:middle;fill:#d5ffd5;fill-opacity:1;stroke:none;font-family:MV Boli;-inkscape-font-specification:MV Boli"
       x="213.41632"
       y="100.1601"
       id="text3013"
       sodipodi:linespacing="125%"><tspan
         sodipodi:role="line"
         id="tspan3015"
         x="213.41632"
         y="100.1601">Games to make</tspan><tspan
         sodipodi:role="line"
         x="213.41632"
         y="145.1601"
         id="tspan3017">you smart</tspan></text>
    <path
       sodipodi:type="arc"
       style="fill:#e9afaf;fill-opacity:1;stroke:#501616;stroke-width:2;stroke-linecap:round;stroke-linejoin:round;stroke-miterlimit:4;stroke-opacity:1;stroke-dasharray:none"
       id="path3019"
       sodipodi:cx="411.93839"
       sodipodi:cy="183.62082"
       sodipodi:rx="33.988316"
       sodipodi:ry="33.988316"
       d="m 445.9267,183.62082 c 0,18.77123 -15.21709,33.98831 -33.98831,33.98831 -18.77123,0 -33.98832,-15.21708 -33.98832,-33.98831 0,-18.77123 15.21709,-33.98832 33.98832,-33.98832 18.77122,0 33.98831,15.21709 33.98831,33.98832 z" />
    <rect
       style="fill:#d5ffd7;fill-opacity:1;stroke:none"
       id="rect3795"
       width="6.7976489"
       height="27.870462"
       x="225.12958"
       y="275.6561"
       rx="5"
       ry="5"
       transform="matrix(0.91093019,-0.41256054,0.41256054,0.91093019,0,0)" />
    <path
       sodipodi:type="arc"
       style="fill:#e9afaf;fill-opacity:1;stroke:#501616;stroke-width:2;stroke-linecap:round;stroke-linejoin:round;stroke-miterlimit:4;stroke-opacity:1;stroke-dasharray:none"
       id="path3025"
       sodipodi:cx="337.84387"
       sodipodi:cy="184.30058"
       sodipodi:rx="11.556027"
       sodipodi:ry="11.556027"
       d="m 349.3999,184.30058 c 0,6.38222 -5.17381,11.55603 -11.55603,11.55603 -6.38222,0 -11.55603,-5.17381 -11.55603,-11.55603 0,-6.38221 5.17381,-11.55602 11.55603,-11.55602 6.38222,0 11.55603,5.17381 11.55603,11.55602 z" />
    <path
       style="fill:#ff7f2a;fill-opacity:1;stroke:#803300;stroke-width:2;stroke-linecap:round;stroke-linejoin:round;stroke-miterlimit:4;stroke-opacity:1"
       d="m 444.32998,203.98424 c 7.68963,-3.88686 18.87751,5.86561 21.31381,13.1572 3.77385,6.47472 31.41572,111.85417 23.11205,168.57501 -42.90197,-9.57299 -103.59043,-5.32702 -125.22637,-4.4768 -12.68928,-36.87466 26.85093,-143.71538 50.80581,-154.95138 30.34821,-14.23479 22.82576,-19.14792 29.9947,-22.30403 z"
       id="rect3797"
       inkscape:connector-curvature="0"
       sodipodi:nodetypes="ccccsc" />
    <path
       sodipodi:type="arc"
       style="fill:#502d16;fill-opacity:1;stroke:#28170b;stroke-width:2;stroke-linecap:round;stroke-linejoin:round;stroke-miterlimit:4;stroke-opacity:1;stroke-dasharray:none"
       id="path3800"
       sodipodi:cx="392.22458"
       sodipodi:cy="181.84677"
       sodipodi:rx="3.8453391"
       sodipodi:ry="6.2218895"
       d="m 396.06992,181.84677 c 0,3.43626 -1.72162,6.22189 -3.84534,6.22189 -2.12372,0 -3.84534,-2.78563 -3.84534,-6.22189 0,-3.43625 1.72162,-6.22189 3.84534,-6.22189 2.12372,0 3.84534,2.78564 3.84534,6.22189 z" />
    <path
       transform="translate(18.265362,-0.45388493)"
       sodipodi:type="arc"
       style="fill:#502d16;fill-opacity:1;stroke:#28170b;stroke-width:2;stroke-linecap:round;stroke-linejoin:round;stroke-miterlimit:4;stroke-opacity:1;stroke-dasharray:none"
       id="path3800-7"
       sodipodi:cx="392.22458"
       sodipodi:cy="181.84677"
       sodipodi:rx="3.8453391"
       sodipodi:ry="6.2218895"
       d="m 396.06992,181.84677 c 0,3.43626 -1.72162,6.22189 -3.84534,6.22189 -2.12372,0 -3.84534,-2.78563 -3.84534,-6.22189 0,-3.43625 1.72162,-6.22189 3.84534,-6.22189 2.12372,0 3.84534,2.78564 3.84534,6.22189 z" />
    <path
       transform="matrix(0.05203223,0.99864541,-0.99864541,0.05203223,564.47206,-195.72891)"
       style="fill:#782121;fill-opacity:1;stroke:#501616;stroke-width:2;stroke-linecap:round;stroke-linejoin:round;stroke-miterlimit:4;stroke-opacity:1"
       d="m 396.06992,181.84677 c 0,3.43626 -6.02685,10.32945 -8.15057,10.32945 -2.12372,0 0.45989,-6.89319 0.45989,-10.32945 0,-3.43625 -2.62595,-10.53963 -0.50223,-10.53963 2.12372,0 8.19291,7.10338 8.19291,10.53963 z"
       id="path3800-7-4"
       inkscape:connector-curvature="0"
       sodipodi:nodetypes="sssss" />
    <rect
       style="fill:#ff7f2a;fill-opacity:1;stroke:#803300;stroke-width:2;stroke-linecap:round;stroke-linejoin:round;stroke-miterlimit:4;stroke-opacity:1;stroke-dasharray:none"
       id="rect3839"
       width="16.994158"
       height="63.898037"
       x="102.60682"
       y="384.36249"
       rx="5"
       ry="5"
       transform="matrix(0.71202363,-0.70215551,0.70215551,0.71202363,0,0)" />
    <path
       transform="matrix(-0.98113644,-0.19331652,0.19331652,-0.98113644,793.80771,422.70067)"
       style="fill:#deaa87;fill-opacity:1;stroke:#784421;stroke-width:2;stroke-linecap:round;stroke-linejoin:round;stroke-miterlimit:4;stroke-opacity:1"
       d="m 445.92152,184.214 c -0.12531,7.17926 -6.52387,24.05698 -11.42006,21.33658 -5.11477,-2.84185 -11.32318,10.83489 -14.99996,7.7835 -5.29304,-4.39276 -6.90611,-7.03525 -12.42617,-2.4824 -6.29277,5.19018 -7.47764,-0.69689 -7.11873,-7.13086 0.24471,-4.38686 -0.89042,-6.14757 -6.43455,-5.44193 -5.81796,0.7405 -18.05185,-15.53081 -10.42566,-16.50918 6.03884,-0.77472 -9.36306,-20.03587 2.1408,-12.21511 3.61055,2.45459 -1.18761,-8.71241 1.90545,-11.20978 5.76744,8.59088 13.37578,16.81904 26.02471,24.05404 12.30038,7.62074 22.34716,3.80378 32.75417,1.81514 z"
       id="path3019-0"
       inkscape:connector-curvature="0"
       sodipodi:nodetypes="csssssssccc" />
  </g>
</svg>
